# xmcd
#
# Track frame offsets:
#	150
#	19772
#	38020
#	54255
#	78787
#	92305
#	109100
#	118495
#
# Disc length: 1897 seconds
#
# Revision: 0
# Processed by: cddbd v1.5.1PL0 Copyright (c) Steve Scherf et al.
# Submitted via: dBpowerAMP V4.0
#
DISCID=54076708
DTITLE=Just Married Band - Live At Abbey Road
DYEAR=1991
DGENRE=Blues
TTITLE0=I Can`t Always Tell
TTITLE1=Don`t Blame Me
TTITLE2=Without Your Love
TTITLE3=Hard To Sleep
TTITLE4=Night Time
TTITLE5=Been A Long Time
TTITLE6=Thats It, I Quit
TTITLE7=What Went Wrong
EXTD=JMR 001
EXTT0=
EXTT1=
EXTT2=
EXTT3=
EXTT4=
EXTT5=
EXTT6=
EXTT7=
PLAYORDER=
